<svg width="32" height="32" viewBox="0 0 32 32" fill="none" xmlns="http://www.w3.org/2000/svg">
<path d="M6.6 20C6.6 20.45 6.21 20.9 5.7 20.9C5.43 20.9 5.16 20.78 4.98 20.54C4.95 20.48 3 17.96 3 14.6C3 7.46 9.15 2 16.2 2C24.96 2 29.4 9.53 29.4 17.9C29.4 24.56 25.2 30.2 18.3 30.2C10.95 30.2 6.57 24.83 6.48 24.74C6.36 24.56 6.3 24.38 6.3 24.2C6.3 23.72 6.69 23.3 7.2 23.3C7.44 23.3 7.71 23.39 7.89 23.6C7.98 23.69 11.91 28.4 18.3 28.4C24 28.4 27.6 23.84 27.6 17.9C27.6 10.07 23.64 3.8 16.2 3.8C10.05 3.8 4.8 8.54 4.8 14.6C4.8 17.81 6.6 19.16 6.6 20ZM21.3 14.12C21.93 14.12 22.8 14.81 22.8 15.5C22.8 16.1 22.14 16.4 21.6 16.4C20.88 16.4 20.4 15.65 20.4 15.02C20.4 14.3 20.91 14.12 21.3 14.12ZM12.9 14.42C13.53 14.42 14.4 15.11 14.4 15.8C14.4 16.4 13.74 16.7 13.2 16.7C12.48 16.7 12 15.95 12 15.32C12 14.6 12.51 14.42 12.9 14.42ZM13.2 22.7C13.2 22.22 13.56 21.8 14.07 21.8C14.34 21.8 14.61 21.92 14.76 22.1C14.85 22.19 16.11 23.6 18.6 23.6C21.42 23.6 23.13 21.2 24 21.2C24.48 21.2 24.9 21.62 24.9 22.1C24.9 22.34 24.78 22.58 24.6 22.76C24.51 22.82 21.75 25.4 18.6 25.4C15.21 25.4 13.5 23.36 13.41 23.27C13.26 23.09 13.2 22.91 13.2 22.7Z" fill="#222222"/>
</svg>
